<svg width="121" height="120" viewBox="0 0 121 120" fill="none" xmlns="http://www.w3.org/2000/svg">
<rect x="0.891602" y="0.391602" width="119.216" height="119.216" rx="59.6082" fill="#FAFAFA"/>
<rect x="1.25655" y="0.75655" width="118.487" height="118.487" rx="59.2433" stroke="black" stroke-opacity="0.1" stroke-width="0.729897"/>
<rect x="20.3555" y="19.8555" width="80.2887" height="80.2887" rx="40.1443" fill="white"/>
<rect x="20.7204" y="20.2204" width="79.5588" height="79.5588" rx="39.7794" stroke="black" stroke-opacity="0.1" stroke-width="0.729897"/>
<path fill-rule="evenodd" clip-rule="evenodd" d="M53.2679 42.5413C54.1662 41.505 55.2769 40.6742 56.5247 40.1052C57.7726 39.5362 59.1282 39.2424 60.4996 39.2437C63.3885 39.2437 65.9772 40.521 67.7314 42.5413C69.0996 42.4436 70.4728 42.6415 71.7577 43.1216C73.0427 43.6017 74.2092 44.3528 75.1782 45.3237C76.1487 46.2925 76.8995 47.4587 77.3796 48.7432C77.8597 50.0277 78.0578 51.4005 77.9606 52.7683C78.9965 53.6668 79.8269 54.7777 80.3955 56.0255C80.9641 57.2733 81.2576 58.6288 81.2561 60.0001C81.2574 61.3715 80.9635 62.7272 80.3946 63.975C79.8256 65.2228 78.9947 66.3336 77.9584 67.2319C78.0557 68.5997 77.8575 69.9725 77.3775 71.257C76.8974 72.5415 76.1466 73.7077 75.176 74.6765C74.2073 75.6471 73.041 76.3979 71.7565 76.8779C70.472 77.358 69.0992 77.5562 67.7314 77.4589C66.8331 78.4952 65.7223 79.326 64.4745 79.895C63.2267 80.464 61.871 80.7579 60.4996 80.7565C59.1282 80.7579 57.7726 80.464 56.5247 79.895C55.2769 79.326 54.1662 78.4952 53.2679 77.4589C51.8998 77.5569 50.5267 77.3593 49.2418 76.8796C47.9568 76.3998 46.7902 75.6492 45.8211 74.6786C44.8503 73.7096 44.0993 72.5431 43.6192 71.2582C43.1391 69.9732 42.9411 68.6001 43.0387 67.2319C42.0028 66.3334 41.1723 65.2225 40.6037 63.9747C40.0351 62.7269 39.7416 61.3714 39.7432 60.0001C39.7432 57.1112 41.0205 54.5225 43.0408 52.7683C42.9434 51.4005 43.1415 50.0277 43.6216 48.7431C44.1017 47.4586 44.8525 46.2924 45.8232 45.3237C46.7919 44.353 47.9581 43.6022 49.2426 43.1221C50.5272 42.642 51.9 42.4439 53.2679 42.5413ZM68.1848 56.1383C68.3126 55.9681 68.405 55.7741 68.4567 55.5677C68.5083 55.3613 68.5182 55.1466 68.4857 54.9363C68.4533 54.726 68.3791 54.5243 68.2675 54.3431C68.156 54.1618 68.0094 54.0047 67.8362 53.881C67.6631 53.7573 67.467 53.6694 67.2594 53.6225C67.0518 53.5756 66.837 53.5707 66.6275 53.6081C66.418 53.6455 66.2181 53.7243 66.0395 53.84C65.8609 53.9558 65.7073 54.106 65.5876 54.282L58.6986 63.9257L55.2413 60.4685C54.9386 60.1864 54.5383 60.0329 54.1247 60.0402C53.711 60.0475 53.3164 60.215 53.0238 60.5076C52.7313 60.8001 52.5637 61.1948 52.5564 61.6084C52.5491 62.0221 52.7027 62.4224 52.9847 62.725L57.7747 67.515C57.9386 67.6788 58.1361 67.8049 58.3537 67.8847C58.5712 67.9644 58.8035 67.9959 59.0345 67.9768C59.2654 67.9578 59.4894 67.8887 59.6909 67.7744C59.8925 67.6601 60.0667 67.5033 60.2016 67.3149L68.1848 56.1383Z" fill="#039754"/>
</svg>
